<?xml version="1.0" standalone="no"?>
<!DOCTYPE svg PUBLIC "-//W3C//DTD SVG 20010904//EN"
 "http://www.w3.org/TR/2001/REC-SVG-20010904/DTD/svg10.dtd">
<svg version="1.0" xmlns="http://www.w3.org/2000/svg"
 width="117.000000pt" height="117.000000pt" viewBox="0 0 117.000000 117.000000"
 preserveAspectRatio="xMidYMid meet">
<metadata>
Created by potrace 1.11, written by Peter Selinger 2001-2013
</metadata>
<g transform="translate(0.000000,117.000000) scale(0.100000,-0.100000)"
fill="#000000" stroke="none">
<path d="M415 990 c-8 -14 -9 -72 -1 -97 8 -26 -3 -25 206 -24 134 0 163 -2
213 -20 l57 -21 -83 -82 c-101 -98 -387 -409 -404 -440 -20 -35 -16 -93 9
-116 20 -19 34 -20 196 -20 l175 0 156 82 c221 116 231 122 231 158 0 21 -5
30 -16 30 -9 0 -97 -29 -196 -65 -124 -45 -193 -65 -225 -65 l-47 0 40 43 c23
23 65 71 93 107 95 118 191 207 263 245 37 20 68 39 69 43 0 4 2 15 4 26 5 28
-30 54 -197 144 l-154 82 -192 0 c-110 0 -193 -4 -197 -10z"/>
<path d="M149 879 c-35 -17 -83 -42 -106 -57 l-43 -27 0 -205 0 -205 43 -27
c61 -38 169 -88 179 -82 11 7 11 621 0 628 -5 3 -38 -8 -73 -25z"/>
</g>
</svg>
